<svg width="20" height="22" viewBox="0 0 20 22" fill="none" xmlns="http://www.w3.org/2000/svg">
<path d="M19.4999 10.9904C19.5006 11.2576 19.4298 11.5202 19.295 11.751C19.1602 11.9817 18.9662 12.1723 18.733 12.3029L2.99049 21.3038C2.76458 21.4319 2.50954 21.4997 2.24987 21.5007C2.01061 21.4994 1.77513 21.4409 1.56308 21.3301C1.35104 21.2192 1.16859 21.0593 1.03095 20.8636C0.89332 20.6679 0.804501 20.4421 0.771912 20.205C0.739323 19.968 0.763908 19.7266 0.843616 19.501L3.37487 12.0057C3.3996 11.9324 3.4464 11.8686 3.50883 11.8229C3.57126 11.7773 3.64629 11.7521 3.72362 11.7507H10.4999C10.6027 11.7509 10.7044 11.73 10.7988 11.6893C10.8932 11.6485 10.9782 11.5888 11.0486 11.5138C11.1189 11.4388 11.1731 11.3501 11.2077 11.2533C11.2423 11.1565 11.2567 11.0536 11.2499 10.951C11.2329 10.7582 11.1436 10.5788 11 10.449C10.8564 10.3191 10.6691 10.2483 10.4755 10.2507H3.72549C3.64703 10.2507 3.57055 10.2261 3.50681 10.1804C3.44307 10.1346 3.39528 10.07 3.37018 9.9957L0.838929 2.50133C0.73818 2.21407 0.727215 1.90296 0.807491 1.60932C0.887767 1.31569 1.05548 1.05342 1.28836 0.857374C1.52124 0.661326 1.80825 0.540772 2.11128 0.511727C2.4143 0.482683 2.71899 0.546522 2.98487 0.694765L18.7349 9.68445C18.9667 9.81477 19.1597 10.0044 19.2942 10.2339C19.4286 10.4633 19.4996 10.7244 19.4999 10.9904Z" fill="#9a6bff"/>
</svg>